<?xml version="1.0" encoding="utf-8"?>
<!-- Generator: Adobe Illustrator 21.1.0, SVG Export Plug-In . SVG Version: 6.00 Build 0)  -->
<svg version="1.1" id="Ebene_1" xmlns="http://www.w3.org/2000/svg" xmlns:xlink="http://www.w3.org/1999/xlink" x="0px" y="0px"
	 viewBox="0 0 40 40" style="enable-background:new 0 0 40 40;" xml:space="preserve">
<path d="M23.9,16.1l0-12c0-2.2-1.7-3.9-3.9-3.9S16.1,2,16.1,4.1l0,12l-12,0c-2.2,0-3.9,1.7-3.9,3.9s1.7,3.9,3.9,3.9l12,0l0,12
	c0,2.2,1.7,3.9,3.9,3.9c1.1,0,2.1-0.4,2.8-1.1c0.7-0.7,1.1-1.7,1.1-2.8l0-12l12,0c1.1,0,2.1-0.4,2.8-1.1c0.7-0.7,1.1-1.7,1.1-2.8
	c0-2.2-1.7-3.9-3.9-3.9L23.9,16.1z"/>
</svg>
