<?xml version="1.0" encoding="utf-8"?>
<!-- Generator: Adobe Illustrator 21.1.0, SVG Export Plug-In . SVG Version: 6.00 Build 0)  -->
<svg version="1.1" id="Ebene_1" xmlns="http://www.w3.org/2000/svg" xmlns:xlink="http://www.w3.org/1999/xlink" x="0px" y="0px"
	 viewBox="0 0 40 40" style="enable-background:new 0 0 40 40;" xml:space="preserve">
<g>
	<path d="M36.6,22.8c-1.4,1.5-3.7,1.7-5.4,0.6c-1.5-1.2-2.3-1.7-4.3-1.7c-2,0-2.8,0.5-4.3,1.7c-1.8,1.3-4.4,3.4-9.2,3.4
		s-7.4-2-9.3-3.4v-0.1c-0.2-0.1-0.4-0.3-0.6-0.5c-1.7-1.6-1.7-4.3,0-6c0.8-0.8,2-1.2,3.1-1.2c1.4,0,2.3,0.8,3.3,1.6
		c1,0.8,2.2,1.2,3.5,1.2c2,0,2.8-0.6,4.3-1.8c1.8-1.3,4.4-3.3,9.2-3.3c3,0,5.8,0.9,8.3,2.5c1.1,0.7,2.2,1.8,2.4,3.1
		C37.9,20.3,37.6,21.8,36.6,22.8z"/>
</g>
</svg>
