<?xml version="1.0" encoding="utf-8"?>
<!-- Generator: Adobe Illustrator 21.1.0, SVG Export Plug-In . SVG Version: 6.00 Build 0)  -->
<svg version="1.1" id="Ebene_1" xmlns="http://www.w3.org/2000/svg" xmlns:xlink="http://www.w3.org/1999/xlink" x="0px" y="0px"
	 viewBox="0 0 40 40" style="enable-background:new 0 0 40 40;" xml:space="preserve">
<path d="M25.5,20l8.5-8.5c1.5-1.5,1.5-4,0-5.5c-1.5-1.5-4-1.5-5.5,0L20,14.5L11.5,6C10,4.5,7.5,4.5,6,6s-1.5,4,0,5.5l8.5,8.5L6,28.5
	c-1.5,1.5-1.5,4,0,5.5c0.8,0.8,1.8,1.1,2.8,1.1s2-0.4,2.8-1.1l8.5-8.5l8.5,8.5c0.8,0.8,1.8,1.1,2.8,1.1s2-0.4,2.8-1.1
	c1.5-1.5,1.5-4,0-5.5L25.5,20z"/>
</svg>
