<?xml version="1.0" encoding="utf-8"?>
<!-- Generator: Adobe Illustrator 21.1.0, SVG Export Plug-In . SVG Version: 6.00 Build 0)  -->
<svg version="1.1" id="Ebene_1" xmlns="http://www.w3.org/2000/svg" xmlns:xlink="http://www.w3.org/1999/xlink" x="0px" y="0px"
	 viewBox="0 0 409 409" style="enable-background:new 0 0 409 409;" xml:space="preserve">
<style type="text/css">
	.st0{fill:#239DE9;}
</style>
<g>
	<g>
		<path class="st0" d="M404.4,201.9C403.1,92.7,314.1,4.5,204.5,4.5C94,4.5,4.5,94,4.5,204.5c0,110.5,89.5,200,200,200
			c58.2,0,110.6-24.9,147.2-64.6v38.2c0,14.6,11.8,26.4,26.4,26.4s26.4-11.8,26.4-26.4L404.4,201.9L404.4,201.9z M204.5,351.7
			c-81.2,0-147.2-66-147.2-147.2s66-147.2,147.2-147.2c81.1,0,147.1,66,147.2,147.1v0.1C351.6,285.7,285.6,351.7,204.5,351.7z"/>
	</g>
	<g>
		<path class="st0" d="M218.9,221.3C219,221.3,219,221.2,218.9,221.3c0.6-0.6,1.2-1.1,1.8-1.6c0.1-0.1,0.2-0.3,0.3-0.4
			c0.8-0.9,1.6-1.9,2.3-3c0.1-0.2,0.3-0.5,0.4-0.7c0.6-1,1.2-2.1,1.6-3.3c0.1-0.2,0.1-0.4,0.2-0.6c0.4-1.2,0.7-2.4,1-3.6
			c0-0.2,0-0.3,0.1-0.5c0.2-1.3,0.3-2.5,0.3-3.8c0-0.1,0-0.3,0-0.4c0-0.5,0-1.1-0.1-1.6l-8.9-82c-0.7-6.1-5.5-11.1-11.8-11.8
			c-7.3-0.8-13.9,4.5-14.7,11.8l-8.1,74.5l-34.8,36.7c-4.8,5-5.7,12.8-1.8,18.9c4.6,7.2,14.1,9.2,21.3,4.6l48.8-31.4
			c0.2-0.1,0.3-0.3,0.5-0.4c0.2-0.1,0.4-0.3,0.6-0.4C218.1,221.9,218.5,221.6,218.9,221.3z"/>
	</g>
</g>
</svg>
